<?xml version="1.0" encoding="UTF-8"?>
<svg xmlns="http://www.w3.org/2000/svg" xmlns:xlink="http://www.w3.org/1999/xlink" width="28px" height="28px" viewBox="0 0 28 28" version="1.1">
<g id="surface1">
<path style=" stroke:none;fill-rule:nonzero;fill:rgb(91.764706%,96.470588%,100%);fill-opacity:1;" d="M 20.832031 2.128906 L 20.832031 25.871094 C 20.832031 26.820312 20.0625 27.589844 19.113281 27.589844 L 2.320312 27.589844 C 1.371094 27.589844 0.605469 26.820312 0.605469 25.871094 L 0.605469 2.128906 C 0.605469 1.179688 1.371094 0.410156 2.320312 0.410156 L 19.113281 0.410156 C 20.0625 0.410156 20.832031 1.179688 20.832031 2.128906 Z M 20.832031 2.128906 "/>
<path style=" stroke:none;fill-rule:nonzero;fill:rgb(78.431373%,93.72549%,99.607843%);fill-opacity:1;" d="M 20.832031 2.128906 L 20.832031 25.871094 C 20.832031 26.820312 20.0625 27.589844 19.113281 27.589844 L 17.339844 27.589844 C 18.285156 27.589844 19.054688 26.820312 19.054688 25.871094 L 19.054688 2.128906 C 19.054688 1.179688 18.285156 0.410156 17.335938 0.410156 L 19.113281 0.410156 C 20.0625 0.410156 20.832031 1.179688 20.832031 2.128906 Z M 20.832031 2.128906 "/>
<path style=" stroke:none;fill-rule:nonzero;fill:rgb(48.627451%,63.137255%,69.411765%);fill-opacity:1;" d="M 15.398438 3.097656 L 15.398438 4.570312 C 15.398438 4.75 15.253906 4.894531 15.078125 4.894531 L 6.265625 4.894531 C 6.089844 4.894531 5.945312 4.75 5.945312 4.570312 L 5.945312 3.097656 C 5.945312 2.917969 6.089844 2.773438 6.265625 2.773438 L 15.078125 2.773438 C 15.253906 2.773438 15.398438 2.917969 15.398438 3.097656 Z M 15.398438 3.097656 "/>
<path style=" stroke:none;fill-rule:nonzero;fill:rgb(40.392157%,55.294118%,59.607843%);fill-opacity:1;" d="M 15.398438 3.097656 L 15.398438 4.574219 C 15.398438 4.75 15.253906 4.894531 15.078125 4.894531 L 13.269531 4.894531 C 13.445312 4.894531 13.589844 4.75 13.589844 4.574219 L 13.589844 3.097656 C 13.589844 2.917969 13.445312 2.773438 13.269531 2.773438 L 15.078125 2.773438 C 15.253906 2.773438 15.398438 2.917969 15.398438 3.097656 Z M 15.398438 3.097656 "/>
<path style=" stroke:none;fill-rule:nonzero;fill:rgb(34.901961%,52.54902%,79.607843%);fill-opacity:1;" d="M 22.414062 12.265625 L 17.742188 23.078125 L 16.003906 22.820312 L 14.265625 21.578125 L 18.933594 10.761719 L 20.828125 10.8125 Z M 22.414062 12.265625 "/>
<path style=" stroke:none;fill-rule:nonzero;fill:rgb(25.882353%,47.058824%,76.470588%);fill-opacity:1;" d="M 22.414062 12.265625 L 17.742188 23.078125 L 16.363281 22.484375 L 16.203125 22.847656 L 21.238281 11.1875 Z M 22.414062 12.265625 "/>
<path style=" stroke:none;fill-rule:nonzero;fill:rgb(60%,90.196078%,98.823529%);fill-opacity:1;" d="M 26.171875 1.519531 C 26.195312 1.730469 26.167969 1.949219 26.078125 2.160156 L 25.589844 3.292969 L 24.285156 3.042969 L 23.285156 2.300781 L 23.777344 1.167969 C 23.992188 0.667969 24.488281 0.382812 24.996094 0.414062 C 25.140625 0.417969 25.285156 0.453125 25.421875 0.511719 C 25.851562 0.695312 26.121094 1.089844 26.171875 1.519531 Z M 26.171875 1.519531 "/>
<path style=" stroke:none;fill-rule:nonzero;fill:rgb(38.431373%,85.882353%,98.431373%);fill-opacity:1;" d="M 26.078125 2.160156 L 25.589844 3.292969 L 24.734375 3.09375 L 25.285156 1.816406 C 25.375 1.609375 25.402344 1.386719 25.378906 1.175781 C 25.34375 0.886719 25.210938 0.617188 24.996094 0.410156 C 25.140625 0.417969 25.285156 0.453125 25.421875 0.511719 C 25.851562 0.695312 26.121094 1.089844 26.171875 1.519531 C 26.195312 1.730469 26.167969 1.949219 26.078125 2.160156 Z M 26.078125 2.160156 "/>
<path style=" stroke:none;fill-rule:nonzero;fill:rgb(50.196078%,70.588235%,98.431373%);fill-opacity:1;" d="M 26.175781 3.546875 L 22.414062 12.265625 L 18.933594 10.761719 L 22.535156 2.421875 C 22.625 2.214844 22.867188 2.117188 23.074219 2.207031 Z M 26.175781 3.546875 "/>
<path style=" stroke:none;fill-rule:nonzero;fill:rgb(38.039216%,63.529412%,97.647059%);fill-opacity:1;" d="M 26.175781 3.546875 L 22.414062 12.265625 L 21.03125 11.667969 L 24.796875 2.949219 Z M 26.175781 3.546875 "/>
<path style=" stroke:none;fill-rule:nonzero;fill:rgb(60%,90.196078%,98.823529%);fill-opacity:1;" d="M 17.742188 23.078125 L 15.128906 25.535156 C 14.804688 25.84375 14.269531 25.613281 14.269531 25.167969 L 14.269531 24.449219 L 14.265625 21.578125 L 16.363281 22.484375 Z M 17.742188 23.078125 "/>
<path style=" stroke:none;fill-rule:nonzero;fill:rgb(38.431373%,85.882353%,98.431373%);fill-opacity:1;" d="M 17.742188 23.078125 L 15.128906 25.535156 C 14.804688 25.84375 14.269531 25.613281 14.269531 25.167969 L 14.269531 24.449219 L 16.363281 22.484375 Z M 17.742188 23.078125 "/>
<path style=" stroke:none;fill-rule:nonzero;fill:rgb(0%,0%,0%);fill-opacity:1;" d="M 13.160156 4.476562 C 12.925781 4.476562 12.734375 4.667969 12.734375 4.902344 C 12.734375 5.140625 12.925781 5.328125 13.160156 5.328125 L 15.078125 5.328125 C 15.488281 5.328125 15.824219 4.996094 15.824219 4.582031 L 15.824219 3.109375 C 15.824219 2.695312 15.488281 2.363281 15.078125 2.363281 L 6.273438 2.363281 C 5.863281 2.363281 5.527344 2.695312 5.527344 3.109375 L 5.527344 4.582031 C 5.527344 4.996094 5.863281 5.328125 6.273438 5.328125 L 11.160156 5.328125 C 11.394531 5.328125 11.585938 5.140625 11.585938 4.902344 C 11.585938 4.667969 11.394531 4.476562 11.160156 4.476562 L 6.378906 4.476562 L 6.378906 3.214844 L 14.972656 3.214844 L 14.972656 4.476562 Z M 13.160156 4.476562 "/>
<path style=" stroke:none;fill-rule:nonzero;fill:rgb(0%,0%,0%);fill-opacity:1;" d="M 3.625 7.515625 C 3.625 7.75 3.816406 7.941406 4.050781 7.941406 L 17.390625 7.941406 C 17.625 7.941406 17.816406 7.75 17.816406 7.515625 C 17.816406 7.277344 17.625 7.089844 17.390625 7.089844 L 4.050781 7.089844 C 3.816406 7.089844 3.625 7.277344 3.625 7.515625 Z M 3.625 7.515625 "/>
<path style=" stroke:none;fill-rule:nonzero;fill:rgb(0%,0%,0%);fill-opacity:1;" d="M 4.050781 10.617188 L 17.390625 10.617188 C 17.625 10.617188 17.816406 10.425781 17.816406 10.191406 C 17.816406 9.957031 17.625 9.765625 17.390625 9.765625 L 4.050781 9.765625 C 3.816406 9.765625 3.625 9.957031 3.625 10.191406 C 3.625 10.425781 3.816406 10.617188 4.050781 10.617188 Z M 4.050781 10.617188 "/>
<path style=" stroke:none;fill-rule:nonzero;fill:rgb(0%,0%,0%);fill-opacity:1;" d="M 14.757812 12.871094 C 14.757812 12.636719 14.570312 12.445312 14.332031 12.445312 L 4.050781 12.445312 C 3.816406 12.445312 3.625 12.636719 3.625 12.871094 C 3.625 13.105469 3.816406 13.296875 4.050781 13.296875 L 14.332031 13.296875 C 14.566406 13.296875 14.757812 13.105469 14.757812 12.871094 Z M 14.757812 12.871094 "/>
<path style=" stroke:none;fill-rule:nonzero;fill:rgb(0%,0%,0%);fill-opacity:1;" d="M 9.367188 15.972656 C 9.601562 15.972656 9.792969 15.78125 9.792969 15.546875 C 9.792969 15.3125 9.601562 15.121094 9.367188 15.121094 L 4.050781 15.121094 C 3.816406 15.121094 3.625 15.3125 3.625 15.546875 C 3.625 15.78125 3.816406 15.972656 4.050781 15.972656 Z M 9.367188 15.972656 "/>
<path style=" stroke:none;fill-rule:nonzero;fill:rgb(0%,0%,0%);fill-opacity:1;" d="M 3.539062 24.25 C 3.765625 24.3125 4 24.183594 4.0625 23.957031 C 4.066406 23.945312 4.347656 23.011719 5.433594 23.011719 C 5.96875 23.011719 6.222656 23.222656 6.578125 23.511719 C 6.980469 23.847656 7.484375 24.265625 8.460938 24.265625 C 9.675781 24.265625 10.328125 22.980469 10.355469 22.925781 C 10.457031 22.71875 10.371094 22.464844 10.164062 22.359375 C 9.953125 22.253906 9.699219 22.335938 9.59375 22.546875 C 9.589844 22.554688 9.144531 23.414062 8.460938 23.414062 C 7.792969 23.414062 7.496094 23.167969 7.121094 22.855469 C 6.722656 22.53125 6.277344 22.160156 5.433594 22.160156 C 4.054688 22.160156 3.398438 23.183594 3.246094 23.722656 C 3.179688 23.949219 3.3125 24.183594 3.539062 24.25 Z M 3.539062 24.25 "/>
<path style=" stroke:none;fill-rule:nonzero;fill:rgb(0%,0%,0%);fill-opacity:1;" d="M 27.777344 4.371094 C 27.734375 4.265625 27.652344 4.179688 27.546875 4.136719 L 26.558594 3.714844 C 26.640625 3.507812 26.539062 3.257812 26.332031 3.167969 L 26.136719 3.082031 L 26.453125 2.34375 C 26.816406 1.503906 26.417969 0.5 25.578125 0.136719 C 24.742188 -0.222656 23.734375 0.175781 23.375 1.011719 L 23.042969 1.773438 C 22.667969 1.710938 22.285156 1.917969 22.132812 2.265625 L 21.246094 4.320312 L 21.246094 2.140625 C 21.246094 0.960938 20.289062 0 19.105469 0 L 2.335938 0 C 1.152344 0 0.195312 0.960938 0.195312 2.140625 L 0.195312 25.859375 C 0.195312 27.039062 1.152344 28 2.335938 28 L 19.105469 28 C 20.289062 28 21.246094 27.039062 21.246094 25.859375 L 21.246094 19.902344 C 21.246094 19.664062 21.058594 19.476562 20.824219 19.476562 C 20.585938 19.476562 20.398438 19.664062 20.398438 19.902344 L 20.398438 25.859375 C 20.398438 26.570312 19.816406 27.148438 19.105469 27.148438 L 2.335938 27.148438 C 1.625 27.148438 1.042969 26.570312 1.042969 25.859375 L 1.042969 2.140625 C 1.042969 1.429688 1.625 0.851562 2.335938 0.851562 L 19.105469 0.851562 C 19.816406 0.851562 20.398438 1.429688 20.398438 2.140625 L 20.398438 6.292969 L 13.875 21.398438 C 13.851562 21.453125 13.839844 21.511719 13.839844 21.570312 L 13.84375 25.152344 C 13.84375 25.953125 14.832031 26.382812 15.417969 25.835938 L 18.03125 23.378906 C 18.066406 23.347656 18.097656 23.304688 18.121094 23.261719 C 18.121094 23.253906 18.125 23.25 18.125 23.246094 C 18.128906 23.242188 18.128906 23.242188 18.128906 23.238281 L 26.222656 4.496094 L 26.820312 4.753906 L 23.65625 12.113281 C 23.5625 12.328125 23.664062 12.578125 23.878906 12.671875 C 23.933594 12.695312 23.992188 12.707031 24.046875 12.707031 C 24.210938 12.707031 24.367188 12.609375 24.4375 12.449219 L 27.773438 4.695312 C 27.816406 4.59375 27.816406 4.476562 27.777344 4.371094 Z M 24.960938 0.851562 C 25.527344 0.882812 25.894531 1.492188 25.671875 2.003906 L 25.355469 2.746094 L 23.835938 2.089844 L 24.15625 1.351562 C 24.292969 1.03125 24.617188 0.832031 24.960938 0.851562 Z M 22.910156 2.617188 L 25.605469 3.78125 L 22.179688 11.707031 L 19.488281 10.546875 Z M 17.515625 22.507812 L 14.824219 21.347656 L 19.148438 11.328125 L 21.84375 12.488281 Z M 14.835938 25.214844 C 14.78125 25.261719 14.695312 25.226562 14.695312 25.152344 L 14.691406 22.214844 L 16.976562 23.203125 Z M 14.835938 25.214844 "/>
</g>
</svg>
