<?xml version="1.0" encoding="utf-8"?>
<!-- Generator: Adobe Illustrator 26.3.1, SVG Export Plug-In . SVG Version: 6.00 Build 0)  -->
<svg version="1.1" id="Layer_1" xmlns="http://www.w3.org/2000/svg" xmlns:xlink="http://www.w3.org/1999/xlink" x="0px" y="0px"
	 viewBox="0 0 44 44" style="enable-background:new 0 0 44 44;" xml:space="preserve">
<style type="text/css">
	.st0{fill:url(#SVGID_1_);}
	.st1{fill-rule:evenodd;clip-rule:evenodd;fill:#FFFFFF;}
	.st2{fill:#FFFFFF;}
</style>
<linearGradient id="SVGID_1_" gradientUnits="userSpaceOnUse" x1="22" y1="-55.2125" x2="22" y2="-99.2125" gradientTransform="matrix(1 0 0 -1 0 -55.2125)">
	<stop  offset="0" style="stop-color:#5930FF"/>
	<stop  offset="1.000000e-04" style="stop-color:#5F65F2"/>
	<stop  offset="1" style="stop-color:#2A32E1"/>
</linearGradient>
<path class="st0" d="M22,44c12.2,0,22-9.8,22-22C44,9.8,34.2,0,22,0C9.8,0,0,9.8,0,22C0,34.2,9.8,44,22,44z"/>
<path class="st1" d="M11.1,11.2v20.2c0,1.1,0.9,2,1.9,2h11.8c-0.5-1-0.7-2.1-0.7-3.3c0-3.9,2.9-7.2,6.6-7.7v-8.3l-4.8-4.9H13
	C12,9.2,11.1,10.1,11.1,11.2z M24.1,18.9h-9.7v2.3h9.7V18.9z M14.4,23.4h6.5v2.3h-6.5V23.4z M24.2,10.2v5.6h5.4L24.2,10.2z"/>
<g>
	<path class="st2" d="M31.7,32.5h-4.7c-0.1,0-0.2-0.1-0.3-0.1c-0.1-0.1-0.1-0.2-0.1-0.3c0.4-1.9,2.1-3.3,4-3.3c0,0,0.1,0,0.1,0
		c0,0,0.1,0,0.1,0c0.6,0,1.2,0.1,1.7,0.4c0.2,0.1,0.5,0,0.6-0.2c0.1-0.2,0-0.5-0.2-0.6c-0.2-0.1-0.3-0.2-0.5-0.2
		c0.6-0.5,1-1.2,1-2.1c0-1.5-1.2-2.7-2.7-2.7c-1.5,0-2.7,1.2-2.7,2.7c0,0.8,0.4,1.6,1,2.1c-0.6,0.2-1.1,0.5-1.6,0.9
		c-0.9,0.7-1.5,1.7-1.7,2.9c-0.1,0.4,0,0.7,0.2,1c0.2,0.3,0.6,0.4,0.9,0.4h4.7c0.2,0,0.4-0.2,0.4-0.4C32.1,32.7,31.9,32.5,31.7,32.5
		z M28.9,26c0-1,0.8-1.8,1.8-1.8c1,0,1.8,0.8,1.8,1.8c0,1-0.8,1.8-1.7,1.8c0,0-0.1,0-0.1,0c0,0-0.1,0-0.1,0
		C29.6,27.8,28.9,27,28.9,26z"/>
	<path class="st2" d="M35.2,31h-1v-1c0-0.2-0.2-0.4-0.4-0.4c-0.2,0-0.4,0.2-0.4,0.4v1h-1c-0.2,0-0.4,0.2-0.4,0.4s0.2,0.4,0.4,0.4h1
		v1c0,0.2,0.2,0.4,0.4,0.4c0.2,0,0.4-0.2,0.4-0.4v-1h1c0.2,0,0.4-0.2,0.4-0.4S35.5,31,35.2,31z"/>
</g>
</svg>
