<?xml version="1.0" encoding="UTF-8"?>
<svg xmlns="http://www.w3.org/2000/svg" xmlns:xlink="http://www.w3.org/1999/xlink" width="44px" height="44px" viewBox="0 0 44 44" version="1.1">
<g id="surface1">
<path style=" stroke:none;fill-rule:nonzero;fill:rgb(91.764706%,96.470588%,100%);fill-opacity:1;" d="M 32.734375 3.34375 L 32.734375 40.65625 C 32.734375 42.148438 31.523438 43.355469 30.035156 43.355469 L 3.648438 43.355469 C 2.15625 43.355469 0.949219 42.148438 0.949219 40.65625 L 0.949219 3.34375 C 0.949219 1.851562 2.15625 0.644531 3.648438 0.644531 L 30.035156 0.644531 C 31.523438 0.644531 32.734375 1.851562 32.734375 3.34375 Z M 32.734375 3.34375 "/>
<path style=" stroke:none;fill-rule:nonzero;fill:rgb(78.431373%,93.72549%,99.607843%);fill-opacity:1;" d="M 32.734375 3.34375 L 32.734375 40.65625 C 32.734375 42.148438 31.523438 43.355469 30.035156 43.355469 L 27.246094 43.355469 C 28.738281 43.355469 29.945312 42.148438 29.945312 40.65625 L 29.945312 3.34375 C 29.945312 1.851562 28.734375 0.644531 27.246094 0.644531 L 30.035156 0.644531 C 31.523438 0.644531 32.734375 1.851562 32.734375 3.34375 Z M 32.734375 3.34375 "/>
<path style=" stroke:none;fill-rule:nonzero;fill:rgb(48.627451%,63.137255%,69.411765%);fill-opacity:1;" d="M 24.199219 4.863281 L 24.199219 7.183594 C 24.199219 7.464844 23.972656 7.691406 23.695312 7.691406 L 9.847656 7.691406 C 9.566406 7.691406 9.339844 7.464844 9.339844 7.183594 L 9.339844 4.863281 C 9.339844 4.585938 9.566406 4.359375 9.847656 4.359375 L 23.695312 4.359375 C 23.972656 4.359375 24.199219 4.585938 24.199219 4.863281 Z M 24.199219 4.863281 "/>
<path style=" stroke:none;fill-rule:nonzero;fill:rgb(40.392157%,55.294118%,59.607843%);fill-opacity:1;" d="M 24.199219 4.863281 L 24.199219 7.183594 C 24.199219 7.464844 23.972656 7.691406 23.695312 7.691406 L 20.851562 7.691406 C 21.128906 7.691406 21.355469 7.464844 21.355469 7.183594 L 21.355469 4.863281 C 21.355469 4.585938 21.128906 4.359375 20.851562 4.359375 L 23.695312 4.359375 C 23.972656 4.359375 24.199219 4.585938 24.199219 4.863281 Z M 24.199219 4.863281 "/>
<path style=" stroke:none;fill-rule:nonzero;fill:rgb(34.901961%,52.54902%,79.607843%);fill-opacity:1;" d="M 35.21875 19.273438 L 27.882812 36.269531 L 25.148438 35.859375 L 22.414062 33.90625 L 29.75 16.914062 L 32.726562 16.988281 Z M 35.21875 19.273438 "/>
<path style=" stroke:none;fill-rule:nonzero;fill:rgb(25.882353%,47.058824%,76.470588%);fill-opacity:1;" d="M 35.21875 19.273438 L 27.882812 36.265625 L 25.710938 35.332031 L 25.460938 35.90625 L 33.375 17.582031 Z M 35.21875 19.273438 "/>
<path style=" stroke:none;fill-rule:nonzero;fill:rgb(60%,90.196078%,98.823529%);fill-opacity:1;" d="M 41.128906 2.386719 C 41.167969 2.71875 41.121094 3.066406 40.980469 3.394531 L 40.210938 5.175781 L 38.160156 4.78125 L 36.59375 3.613281 L 37.363281 1.832031 C 37.699219 1.050781 38.480469 0.601562 39.28125 0.648438 C 39.503906 0.660156 39.734375 0.710938 39.953125 0.804688 C 40.621094 1.09375 41.050781 1.710938 41.128906 2.386719 Z M 41.128906 2.386719 "/>
<path style=" stroke:none;fill-rule:nonzero;fill:rgb(38.431373%,85.882353%,98.431373%);fill-opacity:1;" d="M 40.980469 3.394531 L 40.210938 5.175781 L 38.867188 4.859375 L 39.734375 2.855469 C 39.875 2.527344 39.921875 2.183594 39.882812 1.851562 C 39.828125 1.394531 39.617188 0.96875 39.28125 0.648438 C 39.503906 0.660156 39.734375 0.710938 39.949219 0.804688 C 40.621094 1.09375 41.050781 1.710938 41.128906 2.386719 C 41.167969 2.71875 41.121094 3.066406 40.980469 3.394531 Z M 40.980469 3.394531 "/>
<path style=" stroke:none;fill-rule:nonzero;fill:rgb(50.196078%,70.588235%,98.431373%);fill-opacity:1;" d="M 41.136719 5.574219 L 35.21875 19.273438 L 29.75 16.914062 L 35.410156 3.808594 C 35.554688 3.480469 35.933594 3.328125 36.261719 3.46875 Z M 41.136719 5.574219 "/>
<path style=" stroke:none;fill-rule:nonzero;fill:rgb(38.039216%,63.529412%,97.647059%);fill-opacity:1;" d="M 41.136719 5.574219 L 35.21875 19.273438 L 33.046875 18.335938 L 38.964844 4.636719 Z M 41.136719 5.574219 "/>
<path style=" stroke:none;fill-rule:nonzero;fill:rgb(60%,90.196078%,98.823529%);fill-opacity:1;" d="M 27.882812 36.269531 L 23.773438 40.128906 C 23.261719 40.609375 22.421875 40.25 22.421875 39.546875 L 22.421875 38.421875 L 22.414062 33.90625 L 25.710938 35.332031 Z M 27.882812 36.269531 "/>
<path style=" stroke:none;fill-rule:nonzero;fill:rgb(38.431373%,85.882353%,98.431373%);fill-opacity:1;" d="M 27.882812 36.265625 L 23.773438 40.128906 C 23.261719 40.609375 22.421875 40.25 22.421875 39.546875 L 22.421875 38.421875 L 25.710938 35.332031 Z M 27.882812 36.265625 "/>
<path style=" stroke:none;fill-rule:nonzero;fill:rgb(0%,0%,0%);fill-opacity:1;" d="M 20.679688 7.035156 C 20.3125 7.035156 20.011719 7.335938 20.011719 7.707031 C 20.011719 8.074219 20.3125 8.375 20.679688 8.375 L 23.691406 8.375 C 24.339844 8.375 24.863281 7.847656 24.863281 7.203125 L 24.863281 4.882812 C 24.863281 4.238281 24.339844 3.710938 23.691406 3.710938 L 9.859375 3.710938 C 9.214844 3.710938 8.6875 4.238281 8.6875 4.882812 L 8.6875 7.203125 C 8.6875 7.847656 9.214844 8.375 9.859375 8.375 L 17.535156 8.375 C 17.90625 8.375 18.207031 8.074219 18.207031 7.707031 C 18.207031 7.335938 17.90625 7.035156 17.535156 7.035156 L 10.023438 7.035156 L 10.023438 5.050781 L 23.527344 5.050781 L 23.527344 7.035156 Z M 20.679688 7.035156 "/>
<path style=" stroke:none;fill-rule:nonzero;fill:rgb(0%,0%,0%);fill-opacity:1;" d="M 5.699219 11.808594 C 5.699219 12.175781 5.996094 12.476562 6.367188 12.476562 L 27.328125 12.476562 C 27.695312 12.476562 27.996094 12.175781 27.996094 11.808594 C 27.996094 11.4375 27.695312 11.140625 27.328125 11.140625 L 6.367188 11.140625 C 5.996094 11.140625 5.699219 11.4375 5.699219 11.808594 Z M 5.699219 11.808594 "/>
<path style=" stroke:none;fill-rule:nonzero;fill:rgb(0%,0%,0%);fill-opacity:1;" d="M 6.367188 16.683594 L 27.328125 16.683594 C 27.695312 16.683594 27.996094 16.386719 27.996094 16.015625 C 27.996094 15.648438 27.695312 15.347656 27.328125 15.347656 L 6.367188 15.347656 C 5.996094 15.347656 5.699219 15.648438 5.699219 16.015625 C 5.699219 16.386719 5.996094 16.683594 6.367188 16.683594 Z M 6.367188 16.683594 "/>
<path style=" stroke:none;fill-rule:nonzero;fill:rgb(0%,0%,0%);fill-opacity:1;" d="M 23.191406 20.222656 C 23.191406 19.855469 22.894531 19.554688 22.523438 19.554688 L 6.367188 19.554688 C 5.996094 19.554688 5.699219 19.855469 5.699219 20.222656 C 5.699219 20.59375 5.996094 20.894531 6.367188 20.894531 L 22.523438 20.894531 C 22.894531 20.894531 23.191406 20.59375 23.191406 20.222656 Z M 23.191406 20.222656 "/>
<path style=" stroke:none;fill-rule:nonzero;fill:rgb(0%,0%,0%);fill-opacity:1;" d="M 14.71875 25.101562 C 15.089844 25.101562 15.390625 24.800781 15.390625 24.433594 C 15.390625 24.0625 15.089844 23.761719 14.71875 23.761719 L 6.367188 23.761719 C 5.996094 23.761719 5.699219 24.0625 5.699219 24.433594 C 5.699219 24.800781 5.996094 25.101562 6.367188 25.101562 Z M 14.71875 25.101562 "/>
<path style=" stroke:none;fill-rule:nonzero;fill:rgb(0%,0%,0%);fill-opacity:1;" d="M 5.558594 38.105469 C 5.914062 38.207031 6.285156 38 6.386719 37.644531 C 6.390625 37.628906 6.828125 36.160156 8.539062 36.160156 C 9.378906 36.160156 9.78125 36.492188 10.335938 36.949219 C 10.972656 37.476562 11.761719 38.132812 13.292969 38.132812 C 15.203125 38.132812 16.226562 36.113281 16.269531 36.027344 C 16.433594 35.699219 16.300781 35.300781 15.972656 35.132812 C 15.640625 34.96875 15.242188 35.101562 15.074219 35.429688 C 15.066406 35.445312 14.371094 36.792969 13.292969 36.792969 C 12.246094 36.792969 11.777344 36.40625 11.1875 35.917969 C 10.566406 35.40625 9.863281 34.820312 8.539062 34.820312 C 6.371094 34.820312 5.34375 36.429688 5.101562 37.277344 C 5 37.632812 5.203125 38.003906 5.558594 38.105469 Z M 5.558594 38.105469 "/>
<path style=" stroke:none;fill-rule:nonzero;fill:rgb(0%,0%,0%);fill-opacity:1;" d="M 43.648438 6.867188 C 43.582031 6.703125 43.453125 6.570312 43.289062 6.5 L 41.734375 5.839844 C 41.867188 5.511719 41.703125 5.117188 41.378906 4.980469 L 41.070312 4.84375 L 41.570312 3.679688 C 42.140625 2.363281 41.511719 0.785156 40.195312 0.214844 C 38.878906 -0.351562 37.300781 0.277344 36.730469 1.589844 L 36.210938 2.789062 C 35.621094 2.6875 35.019531 3.011719 34.78125 3.5625 L 33.390625 6.789062 L 33.390625 3.363281 C 33.390625 1.507812 31.878906 0 30.023438 0 L 3.667969 0 C 1.8125 0 0.304688 1.507812 0.304688 3.363281 L 0.304688 40.636719 C 0.304688 42.492188 1.8125 44 3.667969 44 L 30.027344 44 C 31.878906 44 33.390625 42.492188 33.390625 40.636719 L 33.390625 31.273438 C 33.390625 30.902344 33.089844 30.605469 32.722656 30.605469 C 32.351562 30.605469 32.050781 30.902344 32.050781 31.273438 L 32.050781 40.636719 C 32.050781 41.753906 31.144531 42.664062 30.027344 42.664062 L 3.667969 42.664062 C 2.550781 42.664062 1.640625 41.753906 1.640625 40.636719 L 1.640625 3.363281 C 1.640625 2.246094 2.550781 1.335938 3.667969 1.335938 L 30.023438 1.335938 C 31.140625 1.335938 32.050781 2.246094 32.050781 3.363281 L 32.050781 9.886719 L 21.800781 33.628906 C 21.765625 33.710938 21.746094 33.804688 21.746094 33.894531 L 21.753906 39.527344 C 21.753906 40.785156 23.308594 41.460938 24.230469 40.597656 L 28.335938 36.738281 C 28.390625 36.6875 28.4375 36.621094 28.472656 36.550781 C 28.476562 36.542969 28.480469 36.539062 28.484375 36.53125 C 28.484375 36.527344 28.488281 36.519531 28.488281 36.515625 L 41.207031 7.066406 L 42.148438 7.46875 L 37.171875 19.035156 C 37.027344 19.375 37.183594 19.769531 37.523438 19.914062 C 37.609375 19.953125 37.699219 19.96875 37.789062 19.96875 C 38.046875 19.96875 38.292969 19.816406 38.402344 19.5625 L 43.640625 7.378906 C 43.710938 7.214844 43.714844 7.03125 43.648438 6.867188 Z M 39.226562 1.339844 C 40.113281 1.386719 40.691406 2.34375 40.34375 3.152344 L 39.839844 4.316406 L 37.457031 3.285156 L 37.957031 2.121094 C 38.175781 1.621094 38.683594 1.308594 39.226562 1.339844 Z M 36 4.113281 L 40.234375 5.941406 L 34.855469 18.398438 L 30.621094 16.570312 Z M 27.527344 35.371094 L 23.292969 33.542969 L 30.09375 17.800781 L 34.324219 19.628906 Z M 23.3125 39.621094 C 23.230469 39.699219 23.089844 39.640625 23.089844 39.527344 L 23.085938 34.910156 L 26.675781 36.460938 Z M 23.3125 39.621094 "/>
</g>
</svg>
