<?xml version="1.0" encoding="utf-8"?>
<!-- Generator: Adobe Illustrator 26.3.1, SVG Export Plug-In . SVG Version: 6.00 Build 0)  -->
<svg version="1.1" id="Layer_1" xmlns="http://www.w3.org/2000/svg" xmlns:xlink="http://www.w3.org/1999/xlink" x="0px" y="0px"
	 viewBox="0 0 28 28" style="enable-background:new 0 0 28 28;" xml:space="preserve">
<style type="text/css">
	.st0{fill-rule:evenodd;clip-rule:evenodd;fill:url(#SVGID_1_);}
</style>
<linearGradient id="SVGID_1_" gradientUnits="userSpaceOnUse" x1="14.5297" y1="27.8183" x2="14.5297" y2="5.5369" gradientTransform="matrix(1 0 0 -1 0 30)">
	<stop  offset="0" style="stop-color:#5930FF"/>
	<stop  offset="1.000000e-04" style="stop-color:#585FEC"/>
	<stop  offset="1" style="stop-color:#2A32E1"/>
</linearGradient>
<path class="st0" d="M3.2,4v18.6c0,1,0.8,1.8,1.8,1.8h10.9c-0.4-0.9-0.7-1.9-0.7-3c0-3.6,2.6-6.6,6-7.1V6.7l-4.4-4.5H5
	C4,2.2,3.2,3,3.2,4z M15.2,11.2H6.2v2.2h8.9V11.2z M6.2,15.3h6v2.2h-6V15.3z M15.2,3.1v5.1h5L15.2,3.1z M22.4,23.7h-4.2
	c-0.1,0-0.2-0.1-0.3-0.1c-0.1-0.1-0.1-0.2-0.1-0.3c0.4-1.7,1.9-2.9,3.5-2.9h0.1h0.1c0.5,0,1.1,0.1,1.5,0.4c0.2,0.1,0.4,0,0.5-0.2
	c0.1-0.2,0-0.4-0.2-0.5c-0.2-0.1-0.3-0.2-0.4-0.2c0.5-0.4,0.9-1.1,0.9-1.9c0-1.3-1.1-2.4-2.4-2.4c-1.3,0-2.4,1.1-2.4,2.4
	c0,0.7,0.4,1.4,0.9,1.9c-0.5,0.2-1,0.4-1.4,0.8c-0.8,0.6-1.3,1.5-1.5,2.6c-0.1,0.4,0,0.6,0.2,0.9c0.2,0.3,0.5,0.4,0.8,0.4h4.2
	c0.2,0,0.4-0.2,0.4-0.4C22.8,23.8,22.6,23.7,22.4,23.7z M20,17.9c0-0.9,0.7-1.6,1.6-1.6s1.6,0.7,1.6,1.6s-0.7,1.6-1.5,1.6h-0.1h-0.1
	C20.6,19.5,20,18.8,20,17.9z M25.5,22.3h-0.9v-0.9c0-0.2-0.2-0.4-0.4-0.4s-0.4,0.2-0.4,0.4v0.9H23c-0.2,0-0.4,0.2-0.4,0.4
	S22.9,23,23,23h0.9v0.9c0,0.2,0.2,0.4,0.4,0.4s0.4-0.2,0.4-0.4V23h0.9c0.2,0,0.4-0.2,0.4-0.4S25.8,22.3,25.5,22.3z"/>
</svg>
