<svg id="Capa_1" enable-background="new 0 0 512 512" height="512" viewBox="0 0 512 512" width="512" xmlns="http://www.w3.org/2000/svg"><g><g><path d="m380.893 38.91v434.191c0 17.341-14.058 31.399-31.399 31.399h-307.055c-17.341 0-31.399-14.058-31.399-31.399v-434.202c0-17.341 14.058-31.399 31.399-31.399h307.044c17.348 0 31.41 14.063 31.41 31.41z" fill="#eaf6ff"/><path d="m380.898 38.908v434.193c0 17.338-14.066 31.394-31.404 31.394h-32.443c17.338 0 31.394-14.055 31.394-31.394v-434.193c0-17.349-14.066-31.404-31.415-31.404h32.453c17.349 0 31.415 14.056 31.415 31.404z" fill="#c8effe"/><path d="m281.584 56.608v26.999c0 3.242-2.628 5.871-5.871 5.871h-161.142c-3.242 0-5.871-2.628-5.871-5.871v-26.999c0-3.242 2.628-5.871 5.871-5.871h161.142c3.242 0 5.871 2.628 5.871 5.871z" fill="#7ca1b1"/><path d="m281.585 56.61v26.999c0 3.241-2.628 5.869-5.869 5.869h-33.097c3.241 0 5.869-2.628 5.869-5.869v-26.999c0-3.241-2.628-5.87-5.869-5.87h33.097c3.24 0 5.869 2.629 5.869 5.87z" fill="#678d98"/><path d="m409.833 224.293-85.378 197.732-31.815-4.757-31.806-22.714 85.368-197.735 34.633.88z" fill="#5986cb"/><path d="m409.832 224.294-85.372 197.727-25.274-10.904-2.896 6.697 92.069-213.214z" fill="#4278c3"/><path d="m478.578 27.794c.449 3.855-.076 7.884-1.727 11.715l-8.942 20.71-23.864-4.595-18.235-13.578 8.951-20.721c3.924-9.078 13.008-14.322 22.327-13.788 2.611.134 5.257.74 7.8 1.835 7.799 3.368 12.772 10.544 13.69 18.422z" fill="#99e6fc"/><path d="m476.854 39.505-8.948 20.711-15.636-3.651 10.075-23.321c1.659-3.822 2.183-7.852 1.728-11.714-.612-5.294-3.062-10.271-6.983-13.995 2.607.138 5.254.741 7.793 1.837 7.802 3.368 12.78 10.548 13.699 18.42.444 3.861-.079 7.881-1.728 11.713z" fill="#62dbfb"/><path d="m478.67 64.868-68.838 159.425-63.631-27.475 65.865-152.516c1.647-3.814 6.074-5.57 9.888-3.924z" fill="#80b4fb"/><path d="m478.671 64.868-68.839 159.426-25.264-10.914 68.829-159.426z" fill="#61a2f9"/><path d="m324.453 422.025-47.821 44.938c-5.95 5.595-15.708 1.383-15.715-6.78l-.014-13.094-.076-52.541 38.363 16.57z" fill="#99e6fc"/><path d="m324.45 422.021-47.822 44.938c-5.946 5.6-15.704 1.383-15.713-6.775l-.01-13.096 38.281-35.97z" fill="#62dbfb"/></g><g><path d="m240.641 81.884c-4.298 0-7.782 3.484-7.782 7.782 0 4.299 3.484 7.782 7.782 7.782h35.049c7.525 0 13.647-6.122 13.647-13.646v-26.968c0-7.525-6.122-13.647-13.647-13.647h-160.958c-7.525 0-13.647 6.122-13.647 13.647v26.969c0 7.524 6.122 13.646 13.647 13.646h89.331c4.298 0 7.782-3.484 7.782-7.782 0-4.299-3.484-7.782-7.782-7.782h-87.413v-23.133h157.122v23.131h-33.131z"/><path d="m66.302 137.403c0 4.299 3.484 7.782 7.782 7.782h243.902c4.299 0 7.782-3.484 7.782-7.782 0-4.299-3.484-7.782-7.782-7.782h-243.902c-4.298-.001-7.782 3.483-7.782 7.782z"/><path d="m74.084 194.151h243.902c4.299 0 7.782-3.484 7.782-7.782 0-4.299-3.484-7.782-7.782-7.782h-243.902c-4.298 0-7.782 3.484-7.782 7.782 0 4.299 3.484 7.782 7.782 7.782z"/><path d="m269.877 235.336c0-4.299-3.484-7.782-7.782-7.782h-188.011c-4.298 0-7.782 3.484-7.782 7.782s3.484 7.782 7.782 7.782h188.01c4.298 0 7.783-3.484 7.783-7.782z"/><path d="m171.291 292.084c4.298 0 7.782-3.484 7.782-7.782 0-4.299-3.484-7.782-7.782-7.782h-97.207c-4.298 0-7.782 3.484-7.782 7.782 0 4.299 3.484 7.782 7.782 7.782z"/><path d="m64.701 443.408c4.136 1.185 8.439-1.218 9.617-5.352.05-.173 5.155-17.292 25.029-17.292 9.81 0 14.466 3.854 20.911 9.189 7.405 6.13 16.622 13.758 34.43 13.758 22.205 0 34.141-23.477 34.639-24.476 1.91-3.837.349-8.484-3.481-10.407-3.83-1.924-8.502-.375-10.441 3.447-.081.159-8.193 15.871-20.717 15.871-12.202 0-17.632-4.494-24.506-10.184-7.228-5.983-15.419-12.763-30.836-12.763-25.196 0-37.181 18.703-39.998 28.592-1.177 4.134 1.22 8.44 5.353 9.617z"/><path d="m507.906 79.908c-.77-1.921-2.273-3.455-4.177-4.266l-18.083-7.694c1.517-3.834-.39-8.385-4.144-10.007l-3.605-1.557 5.85-13.548c6.608-15.333-.701-33.713-16.018-40.33-15.306-6.612-33.703.699-40.317 16l-6.028 13.955c-6.896-1.202-13.871 2.587-16.639 8.997l-16.211 37.539v-39.84c0-21.592-17.566-39.157-39.157-39.157h-306.695c-21.585 0-39.146 17.561-39.146 39.146v433.708c0 21.585 17.561 39.146 39.146 39.146h306.706c21.585 0 39.145-17.561 39.145-39.146v-108.958c0-4.299-3.484-7.782-7.782-7.782s-7.782 3.484-7.782 7.782v108.958c0 13.003-10.578 23.581-23.58 23.581h-306.707c-13.003 0-23.581-10.578-23.581-23.581v-433.708c0-13.003 10.579-23.581 23.581-23.581h306.695c13.008 0 23.592 10.583 23.592 23.592v75.882l-119.286 276.272c-.415.962-.646 2.041-.644 3.09l.091 65.556c.012 14.628 18.101 22.505 28.808 12.438l47.768-44.887c.66-.613 1.213-1.377 1.616-2.18.042-.083.084-.165.123-.25.025-.053.054-.104.077-.158l147.964-342.678 10.96 4.663-57.884 134.602c-1.698 3.948.126 8.526 4.075 10.224 1.002.432 2.045.635 3.07.635 3.016 0 5.886-1.764 7.153-4.71l60.97-141.778c.818-1.902.845-4.05.076-5.97zm-51.446-64.316c10.322.53 17.05 11.676 12.995 21.077l-5.847 13.542-27.76-11.984 5.852-13.547c2.506-5.798 8.426-9.438 14.76-9.088zm-37.532 32.284 49.26 21.269-62.59 144.955-49.268-21.274zm-98.61 363.731-49.259-21.272 79.102-183.218 49.268 21.274zm-49.041 49.446c-.959.9-2.583.21-2.583-1.111l-.073-53.705 41.788 18.044z"/></g></g></svg>